HIERARCHY
ROOT Hips
{
 OFFSET 0.000000 0.000000 0.000000
 CHANNELS 6 Xposition Yposition Zposition Yrotation Xrotation Zrotation
 JOINT Chest
 {
  OFFSET 0.000000 9.585900 0.002600
  CHANNELS 3 Yrotation Xrotation Zrotation
  JOINT Chest2
  {
   OFFSET 0.000000 9.601200 -0.005300
   CHANNELS 3 Yrotation Xrotation Zrotation
   JOINT Chest3
   {
    OFFSET 0.000000 9.561800 0.000000
    CHANNELS 3 Yrotation Xrotation Zrotation
    JOINT Chest4
    {
     OFFSET 0.000000 9.552100 0.000000
     CHANNELS 3 Yrotation Xrotation Zrotation
     JOINT Neck
     {
      OFFSET 0.000000 14.453000 0.000000
      CHANNELS 3 Yrotation Xrotation Zrotation
      JOINT Head
      {
       OFFSET 0.000000 8.936500 -0.011300
       CHANNELS 3 Yrotation Xrotation Zrotation
       End Site
       {
        OFFSET 0.000000 17.073600 -0.006000
       }
      }
     }
     JOINT RightCollar
     {
      OFFSET -2.921100 9.558500 0.000000
      CHANNELS 3 Yrotation Xrotation Zrotation
      JOINT RightShoulder
      {
       OFFSET -13.519700 0.000000 0.000000
       CHANNELS 3 Yrotation Xrotation Zrotation
       JOINT RightElbow
       {
        OFFSET 0.000000 -29.696600 0.000000
        CHANNELS 3 Yrotation Xrotation Zrotation
        JOINT RightWrist
        {
         OFFSET 0.000000 -24.004700 0.000000
         CHANNELS 3 Yrotation Xrotation Zrotation
         End Site
         {
          OFFSET 0.000000 -17.728500 0.000000
         }
        }
       }
      }
     }
     JOINT LeftCollar
     {
      OFFSET 2.921100 9.558500 0.000000
      CHANNELS 3 Yrotation Xrotation Zrotation
      JOINT LeftShoulder
      {
       OFFSET 13.519700 0.000000 0.000000
       CHANNELS 3 Yrotation Xrotation Zrotation
       JOINT LeftElbow
       {
        OFFSET 0.000000 -29.696600 0.000000
        CHANNELS 3 Yrotation Xrotation Zrotation
        JOINT LeftWrist
        {
         OFFSET 0.000000 -24.004700 0.000000
         CHANNELS 3 Yrotation Xrotation Zrotation
         End Site
         {
          OFFSET 0.000000 -17.728500 0.000000
         }
        }
       }
      }
     }
    }
   }
  }
 }
 JOINT RightHip
 {
  OFFSET -7.771700 -0.012900 -0.001300
  CHANNELS 3 Yrotation Xrotation Zrotation
  JOINT RightKnee
  {
   OFFSET 0.000000 -40.869800 0.001200
   CHANNELS 3 Yrotation Xrotation Zrotation
   JOINT RightAnkle
   {
    OFFSET 0.000000 -39.717900 0.002100
    CHANNELS 3 Yrotation Xrotation Zrotation
    JOINT RightToe
    {
     OFFSET 0.000000 -4.965400 11.033500
     CHANNELS 3 Yrotation Xrotation Zrotation
     End Site
     {
      OFFSET 0.000000 -1.423100 5.872300
     }
    }
   }
  }
 }
 JOINT LeftHip
 {
  OFFSET 7.771700 -0.012900 -0.001300
  CHANNELS 3 Yrotation Xrotation Zrotation
  JOINT LeftKnee
  {
   OFFSET 0.000000 -40.869800 0.001200
   CHANNELS 3 Yrotation Xrotation Zrotation
   JOINT LeftAnkle
   {
    OFFSET 0.000000 -39.717900 0.002100
    CHANNELS 3 Yrotation Xrotation Zrotation
    JOINT LeftToe
    {
     OFFSET 0.000000 -4.965400 11.033500
     CHANNELS 3 Yrotation Xrotation Zrotation
     End Site
     {
      OFFSET 0.000000 -1.423100 5.872300
     }
    }
   }
  }
 }
}
MOTION
Frames: 8
Frame Time: 0.008333
-140.552164 58.430431 114.585616 177.138610 -29.481615 -1.408177 1.908875 21.989634 3.375506 0.152274 3.045369 0.355339 0.257150 4.945117 0.581737 1.248510 18.630124 2.370197 -0.176579 12.107383 -1.834953 0.406561 -13.288861 -3.426835 2.850975 -3.719857 -0.726221 13.795653 -16.112505 -22.168810 174.130186 -80.581547 -135.397622 12.368686 -8.342260 -37.260241 -7.400116 -5.166319 -3.501310 0.227469 -8.537015 2.177047 39.871556 -34.512625 -83.212541 -1.664279 1.033040 -6.355229 1.633532 -45.002492 -2.664072 -12.690347 65.536690 -12.919981 6.764645 24.970493 3.170656 -0.370123 -16.648401 1.350506 -4.832598 -43.064407 -0.422683 25.245195 64.904919 23.802317 -15.796331 4.489732 -1.470777 -0.114536 -0.227940 -0.033522
-140.552791 58.432533 114.585667 177.150410 -29.471778 -1.411934 1.911325 21.980033 3.382526 0.153077 3.043703 0.355668 0.258528 4.942572 0.582340 1.277586 18.618346 2.381062 -0.215275 12.119087 -1.836746 0.425647 -13.297698 -3.454144 2.826985 -3.715814 -0.728540 13.820785 -16.124106 -22.175537 174.165401 -80.559218 -135.423846 12.370290 -8.444399 -37.393616 -7.420141 -5.157808 -3.492892 0.220388 -8.529032 2.177946 39.896221 -34.205203 -83.312031 -1.563595 0.959696 -6.579872 1.569310 -45.005580 -2.640515 -12.672244 65.526245 -12.925281 6.773404 24.957382 3.180283 -0.355275 -16.633815 1.326849 -4.828307 -43.074943 -0.427899 25.243911 64.906194 23.799547 -15.794961 4.499214 -1.461754 -0.122925 -0.236609 -0.035470
-140.553170 58.435882 114.583970 177.147673 -29.474675 -1.408547 1.919433 21.982843 3.384690 0.159203 3.041741 0.358076 0.260227 4.940267 0.582805 1.279288 18.616024 2.382159 -0.210634 12.116183 -1.843599 0.428791 -13.301607 -3.472441 2.854698 -3.726019 -0.729666 13.860189 -16.156279 -22.185473 174.154855 -80.520431 -135.388348 12.344321 -8.497716 -37.551339 -7.414368 -5.157287 -3.482195 0.228522 -8.519367 2.189266 39.914808 -33.923831 -83.418897 -1.470984 0.893290 -6.800464 1.525152 -44.998060 -2.623546 -12.668599 65.517747 -12.935889 6.784059 24.950176 3.186330 -0.361851 -16.624848 1.309816 -4.799316 -43.068751 -0.437110 25.249680 64.907628 23.804058 -15.804854 4.495451 -1.446196 -0.126307 -0.237612 -0.038682
-140.552497 58.438797 114.583472 177.153475 -29.469612 -1.414325 1.921492 21.977081 3.391304 0.159090 3.041015 0.358975 0.266229 4.936903 0.585954 1.271802 18.618384 2.378936 -0.174682 12.098980 -1.861819 0.408712 -13.295769 -3.473066 2.870145 -3.732310 -0.728049 13.880763 -16.171049 -22.193230 174.201263 -80.477358 -135.405063 12.332929 -8.587560 -37.689618 -7.398351 -5.158896 -3.468812 0.264581 -8.500083 2.211090 39.920568 -33.670814 -83.546771 -1.383854 0.834680 -7.024746 1.467939 -44.998608 -2.600217 -12.633881 65.512100 -12.920545 6.793400 24.943414 3.205192 -0.365655 -16.617266 1.283512 -4.753016 -43.070192 -0.450724 25.188178 64.912319 23.770535 -15.835418 4.493638 -1.452870 -0.114453 -0.237637 -0.031708
-140.553836 58.441614 114.583239 177.147771 -29.461850 -1.400225 1.930781 21.968100 3.388251 0.155205 3.040882 0.356051 0.268824 4.934030 0.588535 1.283667 18.614807 2.382047 -0.176764 12.095483 -1.869087 0.413152 -13.300784 -3.489078 2.859267 -3.729949 -0.728648 13.909409 -16.189285 -22.199868 174.275601 -80.455448 -135.461640 12.336037 -8.695890 -37.815070 -7.401519 -5.154152 -3.460920 0.268677 -8.490586 2.211996 39.944811 -33.453237 -83.638447 -1.303285 0.786285 -7.254592 1.435303 -45.002829 -2.599786 -12.597659 65.507665 -12.901928 6.807322 24.934315 3.212167 -0.372556 -16.607101 1.269086 -4.714099 -43.074308 -0.473130 25.189640 64.906381 23.776424 -15.855413 4.497527 -1.449009 -0.114938 -0.241852 -0.034954
-140.553042 58.444426 114.583330 177.147698 -29.452202 -1.398991 1.933810 21.958684 3.396503 0.155976 3.037733 0.353429 0.268151 4.933490 0.587505 1.299568 18.608456 2.385760 -0.186882 12.096514 -1.873522 0.422313 -13.311738 -3.506204 2.846296 -3.726482 -0.729007 13.936108 -16.208954 -22.203632 174.282334 -80.463572 -135.468151 12.348195 -8.832772 -37.928187 -7.416460 -5.146080 -3.459973 0.269189 -8.487147 2.212088 39.979869 -33.257397 -83.717839 -1.230425 0.744352 -7.479638 1.388764 -45.007493 -2.588332 -12.589814 65.498296 -12.899085 6.828479 24.929959 3.205373 -0.369662 -16.600018 1.256160 -4.694130 -43.079735 -0.479250 25.194218 64.899927 23.785332 -15.869843 4.496999 -1.450441 -0.118953 -0.241346 -0.030820
-140.551290 58.446914 114.584046 177.149268 -29.438188 -1.401640 1.933545 21.944468 3.400698 0.156624 3.039063 0.354189 0.269777 4.928069 0.589189 1.312733 18.599744 2.396436 -0.194183 12.095445 -1.884933 0.426982 -13.321090 -3.520993 2.843904 -3.729475 -0.738648 13.952846 -16.221539 -22.202770 174.309406 -80.474871 -135.490729 12.360312 -8.964721 -38.044909 -7.411417 -5.133394 -3.457547 0.276903 -8.475493 2.211965 40.008324 -33.076760 -83.815137 -1.165958 0.702440 -7.693836 1.362284 -45.017527 -2.583585 -12.617282 65.489118 -12.911684 6.820749 24.930439 3.188070 -0.353486 -16.595905 1.241546 -4.689712 -43.091385 -0.476956 25.199229 64.895682 23.789399 -15.865341 4.502296 -1.444843 -0.130490 -0.245854 -0.034895
-140.549179 58.449722 114.584002 177.146325 -29.429291 -1.401479 1.936575 21.935027 3.402723 0.158971 3.034233 0.362154 0.268277 4.928530 0.585945 1.312240 18.602337 2.393434 -0.183971 12.079584 -1.886338 0.428493 -13.327660 -3.533522 2.862834 -3.740215 -0.743034 13.945302 -16.223507 -22.199243 174.667758 -80.392168 -135.771929 12.358969 -8.997518 -38.202810 -7.403224 -5.133434 -3.446088 0.328789 -8.456280 2.229346 40.018952 -32.901960 -83.929476 -1.109860 0.659970 -7.899448 1.342647 -45.022270 -2.582207 -12.622021 65.483981 -12.898272 6.800069 24.926134 3.160711 -0.332727 -16.588352 1.231200 -4.681047 -43.099348 -0.474397 25.201066 64.898063 23.786634 -15.854697 4.506309 -1.428828 -0.124617 -0.251656 -0.044406
